<svg width="480" height="100" viewBox="0 0 480 100" fill="none" xmlns="http://www.w3.org/2000/svg">
<path d="M21.5039 1.5H384.819C405.11 1.50017 423.951 12.0142 434.605 29.2822L467.432 82.4863C471.748 89.4817 466.716 98.4998 458.496 98.5H95.1807C74.8904 98.4998 56.0488 87.9858 45.3945 70.7178L12.5684 17.5137C8.25225 10.5183 13.2842 1.50022 21.5039 1.5Z" stroke="#2A4064" stroke-width="3"/>
<path d="M194.788 29.68V64H185.844V29.68H194.788ZM172.74 29.68V64H163.796V29.68H172.74ZM190.628 43.252V50.168H168.164V43.252H190.628ZM217.782 29.16C221.248 29.16 224.23 29.8707 226.726 31.292C229.256 32.6787 231.198 34.6893 232.55 37.324C233.902 39.9587 234.578 43.1307 234.578 46.84C234.578 50.5493 233.902 53.7213 232.55 56.356C231.198 58.9907 229.256 61.0187 226.726 62.44C224.23 63.8267 221.248 64.52 217.782 64.52C214.315 64.52 211.316 63.8267 208.786 62.44C206.255 61.0187 204.314 58.9907 202.962 56.356C201.61 53.7213 200.934 50.5493 200.934 46.84C200.934 43.1307 201.61 39.9587 202.962 37.324C204.314 34.6893 206.255 32.6787 208.786 31.292C211.316 29.8707 214.315 29.16 217.782 29.16ZM217.782 36.18C216.118 36.18 214.714 36.5787 213.57 37.376C212.426 38.1733 211.559 39.3693 210.97 40.964C210.38 42.524 210.086 44.4827 210.086 46.84C210.086 49.1627 210.38 51.1213 210.97 52.716C211.559 54.3107 212.426 55.5067 213.57 56.304C214.714 57.1013 216.118 57.5 217.782 57.5C219.446 57.5 220.832 57.1013 221.942 56.304C223.086 55.5067 223.952 54.3107 224.542 52.716C225.131 51.1213 225.426 49.1627 225.426 46.84C225.426 44.4827 225.131 42.524 224.542 40.964C223.952 39.3693 223.086 38.1733 221.942 37.376C220.832 36.5787 219.446 36.18 217.782 36.18ZM280.458 29.68V64H272.554V48.244L272.814 37.688H272.71L264.234 64H257.006L248.53 37.688H248.426L248.686 48.244V64H240.73V29.68H253.47L258.878 47.152L260.802 54.432H260.906L262.882 47.204L268.238 29.68H280.458ZM288.058 64V29.68H314.786V36.596H297.002V43.564H311.146V50.064H297.002V57.084H315.462V64H288.058Z" fill="#2A4064"/>
</svg>
