<svg width="500" height="500" viewBox="0 0 500 500" fill="none" xmlns="http://www.w3.org/2000/svg">
<g clip-path="url(#clip0_130_8)">
<path d="M425 0H75C33.5786 0 0 33.5786 0 75V425C0 466.421 33.5786 500 75 500H425C466.421 500 500 466.421 500 425V75C500 33.5786 466.421 0 425 0Z" fill="#F7DF1E"/>
<path d="M316.406 361.328C326.172 377.93 339.844 389.648 362.305 389.648C381.836 389.648 394.531 379.883 394.531 366.211C394.531 350.586 381.836 344.727 360.352 334.961L348.633 330.078C314.453 315.43 291.992 297.852 291.992 259.766C291.992 224.609 318.359 197.266 360.352 197.266C390.625 197.266 412.109 208.008 426.758 235.352L390.625 258.789C382.812 244.141 374.023 238.281 360.352 238.281C346.68 238.281 337.891 247.07 337.891 258.789C337.891 272.461 346.68 278.32 367.188 287.109L378.906 291.992C418.945 309.57 441.406 326.172 441.406 366.211C441.406 408.203 408.203 431.641 363.281 431.641C319.336 431.641 291.016 411.133 277.344 383.789L316.406 361.328ZM150.391 365.234C158.203 377.93 164.062 389.648 180.664 389.648C196.289 389.648 206.055 383.789 206.055 360.352V198.242H252.93V358.398C252.93 407.227 224.609 428.711 182.617 428.711C144.531 428.711 123.047 409.18 112.305 385.742L150.391 365.234Z" fill="black"/>
</g>
<defs>
<clipPath id="clip0_130_8">
<rect width="500" height="500" fill="white"/>
</clipPath>
</defs>
</svg>
