<svg width="500" height="500" viewBox="0 0 500 500" fill="none" xmlns="http://www.w3.org/2000/svg">
<g clip-path="url(#clip0_129_8)">
<path d="M233.627 0.134552C232.551 0.232289 229.13 0.57437 226.051 0.818713C155.034 7.22051 88.5142 45.5336 46.3832 104.42C22.9228 137.162 7.91789 174.303 2.24829 213.642C0.244379 227.374 0 231.43 0 250.049C0 268.668 0.244379 272.724 2.24829 286.456C15.8358 380.333 82.6491 459.207 173.265 488.43C189.492 493.659 206.598 497.227 226.051 499.377C233.627 500.208 266.373 500.208 273.949 499.377C307.527 495.663 335.973 487.355 364.027 473.037C368.328 470.838 369.159 470.251 368.573 469.763C368.182 469.469 349.853 444.888 327.859 415.176L287.879 361.176L237.781 287.043C210.215 246.286 187.537 212.958 187.341 212.958C187.146 212.909 186.95 245.846 186.852 286.065C186.706 356.485 186.657 359.319 185.777 360.981C184.506 363.375 183.529 364.353 181.476 365.428C179.912 366.21 178.544 366.356 171.163 366.356H162.708L160.459 364.939C158.993 364.011 157.918 362.789 157.185 361.372L156.158 359.173L156.256 261.191L156.403 163.16L157.918 161.255C158.7 160.228 160.362 158.909 161.535 158.274C163.539 157.296 164.321 157.198 172.776 157.198C182.747 157.198 184.409 157.589 186.999 160.424C187.732 161.206 214.858 202.06 247.312 251.271C279.765 300.481 324.145 367.676 345.943 400.662L385.533 460.624L387.537 459.305C405.279 447.772 424.047 431.352 438.905 414.248C470.528 377.938 490.909 333.663 497.752 286.456C499.756 272.724 500 268.668 500 250.049C500 231.43 499.756 227.374 497.752 213.642C484.164 119.765 417.351 40.891 326.735 11.6676C310.753 6.48748 293.744 2.92007 274.682 0.769845C269.99 0.281158 237.683 -0.256398 233.627 0.134552ZM335.973 151.334C338.319 152.507 340.225 154.755 340.909 157.101C341.3 158.371 341.398 185.542 341.3 246.775L341.153 334.641L325.66 310.89L310.117 287.14V223.269C310.117 181.975 310.313 158.762 310.606 157.638C311.388 154.902 313.099 152.751 315.445 151.481C317.449 150.455 318.182 150.357 325.855 150.357C333.089 150.357 334.36 150.455 335.973 151.334Z" fill="black"/>
</g>
<defs>
<clipPath id="clip0_129_8">
<rect width="500" height="500" fill="white"/>
</clipPath>
</defs>
</svg>
