<svg width="414" height="60" viewBox="0 0 414 60" fill="none" xmlns="http://www.w3.org/2000/svg">
<path d="M209.014 35.8524L214.995 42.7312C215.602 43.4292 216.75 42.9999 216.75 42.075V17.923C216.75 16.9981 215.602 16.5689 214.995 17.2668L209.014 24.1456C207.818 25.5209 205.682 25.5209 204.486 24.1456L198.505 17.2668C197.898 16.5689 196.75 16.9981 196.75 17.923L196.75 42.075C196.75 42.9999 197.898 43.4291 198.505 42.7312L204.486 35.8524C205.682 34.4771 207.818 34.4771 209.014 35.8524Z" stroke="black" stroke-width="2" stroke-linecap="round"/>
<path d="M142 14L142 46" stroke="black" stroke-width="3" stroke-linecap="round"/>
<path d="M232 14L232 46" stroke="black" stroke-width="3" stroke-linecap="round"/>
<path d="M312 14L312 46" stroke="black" stroke-width="3" stroke-linecap="round"/>
<path d="M392 14L392 46" stroke="black" stroke-width="3" stroke-linecap="round"/>
<path d="M62 14L62 46" stroke="black" stroke-width="3" stroke-linecap="round"/>
<path d="M22 14L22 46" stroke="black" stroke-width="3" stroke-linecap="round"/>
<path d="M102 14L102 46" stroke="black" stroke-width="3" stroke-linecap="round"/>
<path d="M272 14L272 46" stroke="black" stroke-width="3" stroke-linecap="round"/>
<path d="M352 14L352 46" stroke="black" stroke-width="3" stroke-linecap="round"/>
<path d="M182 14L182 46" stroke="black" stroke-width="3" stroke-linecap="round"/>
<path d="M132 20L132 40" stroke="black" stroke-width="3" stroke-linecap="round"/>
<path d="M302 20L302 40" stroke="black" stroke-width="3" stroke-linecap="round"/>
<path d="M382 20L382 40" stroke="black" stroke-width="3" stroke-linecap="round"/>
<path d="M52 20L52 40" stroke="black" stroke-width="3" stroke-linecap="round"/>
<path d="M122 26L122 34" stroke="black" stroke-width="3" stroke-linecap="round"/>
<path d="M292 26L292 34" stroke="black" stroke-width="3" stroke-linecap="round"/>
<path d="M372 26L372 34" stroke="black" stroke-width="3" stroke-linecap="round"/>
<path d="M42 26L42 34" stroke="black" stroke-width="3" stroke-linecap="round"/>
<path d="M32 20L32 40" stroke="black" stroke-width="3" stroke-linecap="round"/>
<path d="M112 20L112 40" stroke="black" stroke-width="3" stroke-linecap="round"/>
<path d="M282 20L282 40" stroke="black" stroke-width="3" stroke-linecap="round"/>
<path d="M362 20L362 40" stroke="black" stroke-width="3" stroke-linecap="round"/>
<path d="M152 6L152 54" stroke="black" stroke-width="3" stroke-linecap="round"/>
<path d="M242 6L242 54" stroke="black" stroke-width="3" stroke-linecap="round"/>
<path d="M322 6L322 54" stroke="black" stroke-width="3" stroke-linecap="round"/>
<path d="M402 6L402 54" stroke="black" stroke-width="3" stroke-linecap="round"/>
<path d="M72 6L72 54" stroke="black" stroke-width="3" stroke-linecap="round"/>
<path d="M12 6L12 54" stroke="black" stroke-width="3" stroke-linecap="round"/>
<path d="M92 6L92 54" stroke="black" stroke-width="3" stroke-linecap="round"/>
<path d="M262 6L262 54" stroke="black" stroke-width="3" stroke-linecap="round"/>
<path d="M342 6L342 54" stroke="black" stroke-width="3" stroke-linecap="round"/>
<path d="M172 6L172 54" stroke="black" stroke-width="3" stroke-linecap="round"/>
<path d="M2 2L2 58" stroke="black" stroke-width="3" stroke-linecap="round"/>
<path d="M82 2L82 58" stroke="black" stroke-width="3" stroke-linecap="round"/>
<path d="M162 2L162 58" stroke="black" stroke-width="3" stroke-linecap="round"/>
<path d="M252 2L252 58" stroke="black" stroke-width="3" stroke-linecap="round"/>
<path d="M332 2L332 58" stroke="black" stroke-width="3" stroke-linecap="round"/>
<path d="M412 2L412 58" stroke="black" stroke-width="3" stroke-linecap="round"/>
</svg>
