<svg width="414" height="60" viewBox="0 0 414 60" fill="none" xmlns="http://www.w3.org/2000/svg">
<path class="hover:shadow-xl hover:shadow-black/60" d="M221.28 27.3775L208.453 20.2517C208.156 20.0866 207.822 20 207.482 20L194.5 20C193.597 20 193.157 21.1016 193.81 21.7241L200.219 27.8276C201.46 29.0099 201.46 30.9901 200.219 32.1724L193.81 38.2759C193.157 38.8984 193.597 40 194.5 40L208 40L221.28 32.6225C223.337 31.4795 223.337 28.5205 221.28 27.3775Z" stroke="black" stroke-width="2" stroke-linecap="round"/>
<path d="M142 14L142 46" stroke="black" stroke-width="3" stroke-linecap="round"/>
<path d="M232 14L232 46" stroke="black" stroke-width="3" stroke-linecap="round"/>
<path d="M312 14L312 46" stroke="black" stroke-width="3" stroke-linecap="round"/>
<path d="M392 14L392 46" stroke="black" stroke-width="3" stroke-linecap="round"/>
<path d="M62 14L62 46" stroke="black" stroke-width="3" stroke-linecap="round"/>
<path d="M22 14L22 46" stroke="black" stroke-width="3" stroke-linecap="round"/>
<path d="M102 14L102 46" stroke="black" stroke-width="3" stroke-linecap="round"/>
<path d="M272 14L272 46" stroke="black" stroke-width="3" stroke-linecap="round"/>
<path d="M352 14L352 46" stroke="black" stroke-width="3" stroke-linecap="round"/>
<path d="M182 14L182 46" stroke="black" stroke-width="3" stroke-linecap="round"/>
<path d="M132 20L132 40" stroke="black" stroke-width="3" stroke-linecap="round"/>
<path d="M302 20L302 40" stroke="black" stroke-width="3" stroke-linecap="round"/>
<path d="M382 20L382 40" stroke="black" stroke-width="3" stroke-linecap="round"/>
<path d="M52 20L52 40" stroke="black" stroke-width="3" stroke-linecap="round"/>
<path d="M122 26L122 34" stroke="black" stroke-width="3" stroke-linecap="round"/>
<path d="M292 26L292 34" stroke="black" stroke-width="3" stroke-linecap="round"/>
<path d="M372 26L372 34" stroke="black" stroke-width="3" stroke-linecap="round"/>
<path d="M42 26L42 34" stroke="black" stroke-width="3" stroke-linecap="round"/>
<path d="M32 20L32 40" stroke="black" stroke-width="3" stroke-linecap="round"/>
<path d="M112 20L112 40" stroke="black" stroke-width="3" stroke-linecap="round"/>
<path d="M282 20L282 40" stroke="black" stroke-width="3" stroke-linecap="round"/>
<path d="M362 20L362 40" stroke="black" stroke-width="3" stroke-linecap="round"/>
<path d="M152 6L152 54" stroke="black" stroke-width="3" stroke-linecap="round"/>
<path d="M242 6L242 54" stroke="black" stroke-width="3" stroke-linecap="round"/>
<path d="M322 6L322 54" stroke="black" stroke-width="3" stroke-linecap="round"/>
<path d="M402 6L402 54" stroke="black" stroke-width="3" stroke-linecap="round"/>
<path d="M72 6L72 54" stroke="black" stroke-width="3" stroke-linecap="round"/>
<path d="M12 6L12 54" stroke="black" stroke-width="3" stroke-linecap="round"/>
<path d="M92 6L92 54" stroke="black" stroke-width="3" stroke-linecap="round"/>
<path d="M262 6L262 54" stroke="black" stroke-width="3" stroke-linecap="round"/>
<path d="M342 6L342 54" stroke="black" stroke-width="3" stroke-linecap="round"/>
<path d="M172 6L172 54" stroke="black" stroke-width="3" stroke-linecap="round"/>
<path d="M2 2L2 58" stroke="black" stroke-width="3" stroke-linecap="round"/>
<path d="M82 2L82 58" stroke="black" stroke-width="3" stroke-linecap="round"/>
<path d="M162 2L162 58" stroke="black" stroke-width="3" stroke-linecap="round"/>
<path d="M252 2L252 58" stroke="black" stroke-width="3" stroke-linecap="round"/>
<path d="M332 2L332 58" stroke="black" stroke-width="3" stroke-linecap="round"/>
<path d="M412 2L412 58" stroke="black" stroke-width="3" stroke-linecap="round"/>
</svg>
