<svg width="500" height="500" viewBox="0 0 500 500" fill="none" xmlns="http://www.w3.org/2000/svg">
<path d="M411.1 171.531C405.913 169.745 400.539 168.056 395.005 166.458C395.914 162.746 396.749 159.082 397.491 155.48C409.675 96.3377 401.709 48.6919 374.507 33.0049C348.423 17.9631 305.764 33.6466 262.682 71.1402C258.539 74.7456 254.384 78.5627 250.231 82.5633C247.464 79.9164 244.702 77.3586 241.946 74.912C196.794 34.8213 151.536 17.9266 124.361 33.659C98.3015 48.7444 90.5844 93.536 101.552 149.586C102.611 155 103.849 160.528 105.249 166.15C98.8435 167.968 92.6599 169.906 86.7432 171.968C33.8073 190.424 0 219.349 0 249.352C0 280.338 36.2921 311.419 91.429 330.264C95.7802 331.752 100.295 333.158 104.948 334.493C103.438 340.572 102.124 346.53 101.021 352.341C90.5639 407.418 98.7305 451.151 124.72 466.141C151.565 481.622 196.618 465.71 240.489 427.362C243.956 424.33 247.436 421.116 250.922 417.746C255.441 422.097 259.952 426.215 264.439 430.078C306.933 466.645 348.902 481.411 374.868 466.379C401.686 450.854 410.402 403.874 399.086 346.715C398.222 342.35 397.216 337.89 396.087 333.351C399.251 332.415 402.357 331.45 405.386 330.446C462.706 311.454 500 280.752 500 249.352C500 219.24 465.102 190.121 411.1 171.531ZM398.668 310.171C395.934 311.076 393.129 311.951 390.27 312.799C383.942 292.766 375.402 271.464 364.951 249.456C374.924 227.971 383.134 206.942 389.285 187.039C394.4 188.519 399.364 190.08 404.148 191.727C450.417 207.655 478.64 231.205 478.64 249.352C478.64 268.68 448.16 293.772 398.668 310.171ZM378.132 350.863C383.136 376.138 383.851 398.99 380.536 416.854C377.558 432.906 371.57 443.608 364.165 447.894C348.407 457.015 314.711 445.159 278.369 413.886C274.203 410.301 270.007 406.474 265.797 402.422C279.886 387.014 293.967 369.101 307.709 349.207C331.88 347.062 354.717 343.556 375.426 338.768C376.446 342.883 377.352 346.918 378.132 350.863ZM170.461 446.318C155.066 451.755 142.805 451.91 135.393 447.637C119.621 438.54 113.065 403.426 122.008 356.324C123.033 350.93 124.252 345.389 125.657 339.725C146.14 344.254 168.809 347.513 193.038 349.478C206.873 368.944 221.36 386.838 235.959 402.505C232.77 405.585 229.592 408.516 226.433 411.279C207.034 428.236 187.594 440.267 170.461 446.318ZM98.3371 310.053C73.9567 301.72 53.8223 290.889 40.0212 279.071C27.6201 268.451 21.3589 257.907 21.3589 249.352C21.3589 231.145 48.5029 207.922 93.7741 192.138C99.2672 190.223 105.017 188.418 110.985 186.723C117.241 207.075 125.449 228.354 135.354 249.871C125.321 271.708 116.997 293.326 110.679 313.917C106.425 312.694 102.303 311.407 98.3371 310.053ZM122.514 145.484C113.117 97.4617 119.358 61.2355 135.062 52.1451C151.789 42.461 188.778 56.2684 227.764 90.8847C230.255 93.0972 232.757 95.413 235.266 97.8088C220.739 113.408 206.384 131.167 192.672 150.519C169.157 152.698 146.647 156.2 125.951 160.888C124.65 155.654 123.497 150.512 122.514 145.484ZM338.191 198.74C333.244 190.195 328.165 181.851 322.987 173.735C338.94 175.752 354.224 178.429 368.578 181.705C364.269 195.516 358.898 209.956 352.575 224.759C348.04 216.149 343.243 207.467 338.191 198.74ZM250.239 113.074C260.091 123.748 269.957 135.665 279.662 148.595C269.882 148.133 259.982 147.892 250 147.892C240.112 147.892 230.285 148.127 220.566 148.581C230.28 135.771 240.232 123.871 250.239 113.074ZM161.722 198.888C156.78 207.458 152.072 216.093 147.608 224.743C141.388 209.992 136.067 195.486 131.72 181.479C145.986 178.286 161.198 175.676 177.05 173.698C171.799 181.888 166.678 190.295 161.722 198.888ZM177.506 326.529C161.129 324.702 145.687 322.226 131.425 319.122C135.841 304.865 141.28 290.049 147.632 274.98C152.108 283.624 156.835 292.263 161.807 300.851C166.872 309.601 172.12 318.171 177.506 326.529ZM250.829 387.135C240.706 376.212 230.608 364.13 220.746 351.133C230.32 351.509 240.08 351.701 250 351.701C260.191 351.701 270.266 351.471 280.182 351.03C270.446 364.26 260.615 376.362 250.829 387.135ZM352.779 274.212C359.462 289.444 365.096 304.182 369.569 318.196C355.072 321.503 339.419 324.167 322.928 326.146C328.118 317.921 333.242 309.434 338.277 300.704C343.37 291.872 348.206 283.026 352.779 274.212ZM319.775 290.033C311.959 303.585 303.934 316.522 295.788 328.734C280.951 329.794 265.623 330.341 250 330.341C234.44 330.341 219.305 329.858 204.73 328.912C196.256 316.54 188.057 303.565 180.291 290.15C172.546 276.771 165.419 263.28 158.959 249.864C165.417 236.417 172.527 222.911 180.228 209.556L180.226 209.559C187.948 196.169 196.074 183.257 204.471 170.963C219.341 169.839 234.589 169.252 249.999 169.252C265.479 169.252 280.747 169.843 295.613 170.977C303.881 183.181 311.952 196.052 319.704 209.443C327.544 222.985 334.746 236.402 341.259 249.561C334.766 262.945 327.58 276.497 319.775 290.033ZM363.837 51.5096C380.581 61.1651 387.092 100.106 376.572 151.169C375.901 154.428 375.146 157.746 374.325 161.11C353.581 156.323 331.055 152.761 307.471 150.549C293.732 130.984 279.495 113.198 265.205 97.799C269.047 94.1029 272.884 90.5785 276.704 87.2526C313.618 55.1283 348.118 42.445 363.837 51.5096ZM250 204.703C274.658 204.703 294.648 224.692 294.648 249.352C294.648 274.01 274.658 294 250 294C225.342 294 205.352 274.01 205.352 249.352C205.352 224.692 225.342 204.703 250 204.703Z" fill="#00D8FF"/>
</svg>
