<svg width="500" height="500" viewBox="0 0 500 500" fill="none" xmlns="http://www.w3.org/2000/svg">
<g clip-path="url(#clip0_129_14)">
<path fill-rule="evenodd" clip-rule="evenodd" d="M250 100C183.333 100 141.667 133.333 125 200C150 166.667 179.167 154.167 212.5 162.5C231.519 167.25 245.111 181.056 260.157 196.324C284.667 221.204 313.037 250 375 250C441.667 250 483.333 216.667 500 150C475 183.333 445.833 195.833 412.5 187.5C393.481 182.75 379.889 168.944 364.843 153.676C340.333 128.796 311.963 100 250 100ZM125 250C58.3333 250 16.6667 283.333 0 350C25 316.667 54.1667 304.167 87.5 312.5C106.519 317.259 120.111 331.056 135.157 346.324C159.667 371.204 188.037 400 250 400C316.667 400 358.333 366.667 375 300C350 333.333 320.833 345.833 287.5 337.5C268.481 332.75 254.889 318.944 239.843 303.676C215.333 278.796 186.963 250 125 250Z" fill="#38BDF8"/>
</g>
<defs>
<clipPath id="clip0_129_14">
<rect width="500" height="500" fill="white"/>
</clipPath>
</defs>
</svg>
