<svg width="500" height="500" viewBox="0 0 500 500" fill="none" xmlns="http://www.w3.org/2000/svg">
<g clip-path="url(#clip0_130_2)">
<path d="M425 0H75C33.5786 0 0 33.5786 0 75V425C0 466.421 33.5786 500 75 500H425C466.421 500 500 466.421 500 425V75C500 33.5786 466.421 0 425 0Z" fill="#3178C6"/>
<path d="M227.539 277.344H290.039V237.305H115.234V277.344H177.734V456.055H227.539V277.344ZM309.57 446.289C317.48 450.391 327.148 453.418 337.891 455.469C348.633 457.52 360.352 458.496 372.07 458.496C383.789 458.496 394.531 457.422 405.273 455.176C416.016 452.93 424.805 449.219 432.617 444.434C440.527 439.258 447.266 432.715 451.172 423.926C455.078 415.137 458.105 405.371 458.105 392.676C458.105 383.789 456.738 376.074 454.102 369.238C451.465 362.402 447.656 356.543 442.383 351.66C437.402 346.484 431.641 341.895 424.805 337.988C417.969 334.082 410.156 329.98 401.367 326.27C394.922 323.633 389.648 321.094 383.789 318.555C378.711 316.016 374.316 313.477 371.094 310.937C367.48 308.301 364.746 305.566 362.793 302.734C360.84 299.805 359.863 296.582 359.863 292.969C359.863 289.648 360.732 286.621 362.5 283.887C364.268 281.152 366.699 278.906 369.824 276.953C372.949 275 376.855 273.535 381.543 272.461C386.133 271.387 391.211 270.898 397.168 270.898C401.27 270.898 405.566 271.201 409.863 271.816C414.355 272.432 418.945 273.379 423.535 274.648C428.125 275.918 432.617 277.48 437.207 279.434C441.504 281.387 445.508 283.633 448.926 286.172V240.273C441.504 237.441 433.301 235.293 424.512 233.926C415.723 232.559 405.957 231.875 394.238 231.875C382.52 231.875 371.777 233.145 361.035 235.586C350.293 238.027 341.504 241.934 333.691 247.305C325.781 252.578 320.02 259.023 315.137 267.812C310.547 276.016 308.301 285.391 308.301 297.109C308.301 311.758 312.5 324.453 320.996 334.219C329.395 344.961 342.48 352.773 359.082 360.586C365.82 363.32 371.777 366.055 377.637 368.691C383.496 371.328 388.379 374.062 392.285 376.895C396.484 379.727 399.805 382.852 402.051 386.172C404.492 389.492 405.762 393.398 405.762 397.891C405.762 401.016 405 403.945 403.516 406.68C402.031 409.414 399.707 411.758 396.582 413.711C393.457 415.664 389.648 417.227 384.863 418.398C380.273 419.473 375.098 420.059 368.262 420.059C357.52 420.059 346.777 418.203 337.012 414.492C326.27 410.781 316.504 405.215 309.57 399.414V446.289Z" fill="white"/>
</g>
<defs>
<clipPath id="clip0_130_2">
<rect width="500" height="500" fill="white"/>
</clipPath>
</defs>
</svg>
